<svg width="565" height="93" viewBox="0 0 1130 186" fill="none" xmlns="http://www.w3.org/2000/svg">
    <g clip-path="url(#clip0_310_1135)">
        <g clip-path="url(#clip1_310_1135)">
            <path fill-rule="evenodd" clip-rule="evenodd" d="M0 0H123.828C157.999 0 185.742 27.7437 185.742 61.9141H61.9141C96.0844 61.9141 123.828 89.6578 123.828 123.828H0V61.9141V0ZM0 123.828V185.742H61.9141C61.9141 151.572 34.1704 123.828 0 123.828Z" fill="#0D00FF"/>
        </g>
        <path d="M1129.18 164.381H1110.55V96.5545C1110.55 89.7646 1108.89 84.2026 1105.56 79.8687C1102.39 75.5347 1096.32 73.3677 1087.36 73.3677C1080.57 73.3677 1075.15 74.8123 1071.11 77.7017C1067.06 80.4465 1064.1 84.2027 1062.22 88.97C1060.49 93.7374 1059.62 99.0827 1059.62 105.006L1058.32 96.1211C1059.05 89.6201 1060.78 83.4081 1063.52 77.485C1066.41 71.4174 1070.46 66.5778 1075.66 62.9661C1081 59.21 1087.72 57.3319 1095.81 57.3319C1106.07 57.3319 1114.16 60.3657 1120.08 66.4333C1126.15 72.3564 1129.18 80.8799 1129.18 92.0038V164.381ZM1059.62 164.381H1040.99V19.1929H1059.62V164.381Z" fill="#0A104A"/>
        <path d="M973.07 166.549C962.958 166.549 954.218 164.31 946.85 159.831C939.482 155.353 933.776 148.996 929.731 140.762C925.686 132.527 923.663 122.92 923.663 111.941C923.663 100.817 925.686 91.2098 929.731 83.1197C933.776 74.8852 939.482 68.5286 946.85 64.0502C954.218 59.5717 962.958 57.3325 973.07 57.3325C986.65 57.3325 997.485 60.8719 1005.58 67.9508C1013.67 74.8852 1018.94 83.6254 1021.39 94.1714L1002.97 101.756C1001.96 93.3768 999.074 86.5147 994.307 81.1694C989.684 75.8242 982.677 73.1516 973.287 73.1516C966.931 73.1516 961.441 74.6685 956.818 77.7023C952.34 80.736 948.872 85.1423 946.416 90.9209C943.961 96.6995 942.733 103.706 942.733 111.941C942.733 120.175 943.961 127.182 946.416 132.961C948.872 138.739 952.34 143.218 956.818 146.396C961.441 149.43 966.931 150.947 973.287 150.947C982.677 150.947 989.684 148.274 994.307 142.929C999.074 137.439 1001.96 130.577 1002.97 122.342L1021.39 129.71C1018.94 140.256 1013.67 149.069 1005.58 156.147C997.485 163.082 986.65 166.549 973.07 166.549Z" fill="#0A104A"/>
        <path d="M904.121 164.382H885.485V96.5551C885.485 89.7652 883.824 84.2032 880.501 79.8692C877.323 75.5353 871.255 73.3683 862.298 73.3683C855.509 73.3683 850.091 74.8129 846.046 77.7023C842.001 80.4471 839.039 84.2032 837.161 88.9706C835.428 93.738 834.561 99.0832 834.561 105.006L833.261 96.1217C833.983 89.6207 835.717 83.4087 838.462 77.4855C841.351 71.418 845.396 66.5784 850.597 62.9667C855.942 59.2106 862.66 57.3325 870.75 57.3325C881.007 57.3325 889.097 60.3663 895.02 66.4339C901.088 72.357 904.121 80.8805 904.121 92.0044V164.382ZM834.561 164.382H815.925V59.4995H834.561V164.382Z" fill="#0A104A"/>
        <path d="M789.537 42.5964H770.9V19.1929H789.537V42.5964ZM789.537 164.381H770.9V59.4989H789.537V164.381Z" fill="#0A104A"/>
        <path d="M673.67 164.381H655.034V19.1929H673.67V164.381ZM738.246 104.572H661.318V87.8865H738.246V104.572ZM752.332 35.8787H661.318V19.1929H752.332V35.8787Z" fill="#0A104A"/>
        <path d="M584.129 166.549C574.306 166.549 565.565 164.31 557.909 159.831C550.396 155.353 544.473 149.069 540.139 140.978C535.95 132.744 533.855 123.065 533.855 111.941C533.855 100.817 535.95 91.2098 540.139 83.1197C544.329 74.8852 550.107 68.5286 557.475 64.0502C564.987 59.5717 573.511 57.3325 583.046 57.3325C592.869 57.3325 601.321 59.4273 608.4 63.6168C615.623 67.6619 621.113 73.4405 624.869 80.9527C628.769 88.465 630.72 97.4219 630.72 107.823C630.72 109.413 630.647 111.002 630.503 112.591C630.358 114.035 630.142 115.263 629.853 116.275H548.157V102.623H618.584L614.034 109.124C614.034 97.2774 611.289 88.3205 605.799 82.2529C600.309 76.1853 592.725 73.1516 583.046 73.1516C573.511 73.1516 565.926 76.3298 560.292 82.6863C554.803 88.8984 552.058 98.2887 552.058 110.857V113.241C552.058 121.187 553.358 127.976 555.958 133.611C558.559 139.245 562.243 143.579 567.01 146.613C571.922 149.502 577.628 150.947 584.129 150.947C591.208 150.947 596.914 149.863 601.248 147.696C605.727 145.529 609.266 142.856 611.867 139.678C614.467 136.356 616.417 133.249 617.718 130.36L629.203 143.362C625.302 149.574 619.668 154.992 612.3 159.615C604.932 164.237 595.542 166.549 584.129 166.549Z" fill="#0A104A"/>
        <path d="M458.621 166.549C451.832 166.549 445.908 165.249 440.852 162.648C435.796 159.903 431.895 155.931 429.15 150.73C426.55 145.529 425.25 139.317 425.25 132.094V59.4995H443.886V127.543C443.886 134.333 445.547 139.895 448.87 144.229C452.193 148.563 458.26 150.73 467.073 150.73C473.863 150.73 479.28 149.285 483.325 146.396C487.37 143.507 490.26 139.678 491.993 134.911C493.871 130.143 494.81 124.87 494.81 119.092L496.11 127.976C495.388 134.477 493.582 140.69 490.693 146.613C487.948 152.391 483.903 157.159 478.558 160.915C473.357 164.671 466.712 166.549 458.621 166.549ZM513.446 164.382H494.81V59.4995H513.446V164.382Z" fill="#0A104A"/>
        <path d="M399.512 164.381H380.876V19.1929H399.512V164.381Z" fill="#0A104A"/>
        <path d="M307.899 164.381H258.058V147.696H304.865C316.422 147.696 324.873 145.745 330.219 141.845C335.708 137.944 338.453 131.66 338.453 122.992C338.453 117.069 337.009 112.301 334.119 108.69C331.23 105.078 327.329 102.478 322.418 100.888C317.506 99.1549 311.871 98.2881 305.515 98.2881H258.058V81.3856H303.348C308.982 81.3856 313.894 80.7355 318.084 79.4353C322.417 77.9906 325.812 75.6069 328.268 72.2842C330.724 68.9615 331.952 64.4108 331.952 58.6321C331.952 52.8535 330.652 48.375 328.052 45.1968C325.596 41.8741 322.129 39.4904 317.65 38.0457C313.316 36.601 308.26 35.8787 302.481 35.8787H258.058V19.1929H308.982C318.228 19.1929 325.957 20.782 332.169 23.9603C338.525 26.994 343.293 31.328 346.471 36.9622C349.794 42.4519 351.455 48.8807 351.455 56.2484C351.455 60.149 350.805 63.9051 349.505 67.5168C348.205 71.1285 346.11 74.3789 343.221 77.2683C340.476 80.1576 336.936 82.6135 332.602 84.636C328.268 86.5141 322.995 87.8143 316.783 88.5366C327.04 89.5479 335.131 91.7871 341.054 95.2543C347.121 98.7215 351.455 103.055 354.056 108.256C356.656 113.457 357.956 119.163 357.956 125.376C357.956 133.61 355.934 140.689 351.889 146.612C347.988 152.391 342.282 156.797 334.769 159.831C327.402 162.864 318.445 164.381 307.899 164.381ZM266.292 164.381H247.656V19.1929H266.292V164.381Z" fill="#0A104A"/>
    </g>
    <defs>
        <clipPath id="clip0_310_1135">
            <rect width="1129.18" height="185.742" fill="white"/>
        </clipPath>
        <clipPath id="clip1_310_1135">
            <rect width="185.742" height="185.742" fill="white"/>
        </clipPath>
    </defs>
</svg>
